<?xml version="1.0" encoding="UTF-8"?>
<svg id="Layer_2" data-name="Layer 2" xmlns="http://www.w3.org/2000/svg" viewBox="0 0 232.99 30.04">
  <defs>
    <style>
      .cls-1 {
        opacity: .9;
      }

      .cls-2 {
        fill: #231f20;
      }
    </style>
  </defs>
  <g id="Layer_1-2" data-name="Layer 1">
    <g>
      <g class="cls-1">
        <path class="cls-2" d="M1.27,10.22c.84-1.69,1.99-2.99,3.45-3.9,1.45-.91,3.08-1.36,4.87-1.36,1.53,0,2.88.31,4.03.93,1.16.62,2.05,1.44,2.67,2.46v-3.08h6.66v21.75h-6.66v-3.08c-.65,1.01-1.55,1.83-2.71,2.45-1.16.62-2.5.94-4.03.94-1.77,0-3.38-.46-4.83-1.38-1.46-.92-2.61-2.23-3.45-3.94-.84-1.7-1.27-3.67-1.27-5.9s.42-4.2,1.27-5.88ZM14.91,12.21c-.92-.96-2.05-1.44-3.37-1.44s-2.45.47-3.37,1.42c-.92.95-1.38,2.25-1.38,3.92s.46,2.98,1.38,3.96c.92.97,2.05,1.46,3.37,1.46s2.45-.48,3.37-1.44,1.38-2.27,1.38-3.94-.46-2.97-1.38-3.94Z"/>
        <path class="cls-2" d="M36.4,6.07c1.17-.69,2.47-1.03,3.9-1.03v7.05h-1.83c-1.66,0-2.91.36-3.74,1.07-.83.72-1.25,1.97-1.25,3.76v10.09h-6.66V5.28h6.66v3.62c.78-1.2,1.75-2.14,2.92-2.83Z"/>
        <path class="cls-2" d="M46.3,26.36c-1.48-.65-2.65-1.54-3.51-2.67-.86-1.13-1.34-2.4-1.44-3.8h6.59c.08.75.43,1.36,1.05,1.83.62.47,1.39.7,2.3.7.83,0,1.47-.16,1.93-.49.45-.32.68-.75.68-1.27,0-.62-.33-1.08-.97-1.38-.65-.3-1.7-.63-3.16-.99-1.56-.36-2.86-.75-3.9-1.15-1.04-.4-1.94-1.04-2.69-1.91-.75-.87-1.13-2.05-1.13-3.53,0-1.25.34-2.38,1.03-3.41.69-1.03,1.7-1.84,3.04-2.44,1.34-.6,2.93-.9,4.77-.9,2.73,0,4.88.68,6.45,2.03,1.57,1.35,2.47,3.14,2.71,5.38h-6.16c-.1-.75-.44-1.35-.99-1.79-.56-.44-1.29-.66-2.2-.66-.78,0-1.38.15-1.79.45-.42.3-.62.71-.62,1.23,0,.62.33,1.09.99,1.4.66.31,1.7.62,3.1.94,1.61.42,2.92.82,3.94,1.23,1.01.4,1.9,1.05,2.67,1.95.77.9,1.16,2.1,1.19,3.6,0,1.27-.36,2.41-1.07,3.41s-1.74,1.79-3.08,2.36c-1.34.57-2.89.86-4.66.86-1.9,0-3.59-.32-5.07-.97Z"/>
        <path class="cls-2" d="M67.44,25.97c-1.7-.91-3.04-2.21-4.01-3.9-.97-1.69-1.46-3.66-1.46-5.92s.49-4.2,1.48-5.9,2.34-3.01,4.05-3.92c1.71-.91,3.64-1.36,5.77-1.36s4.05.45,5.77,1.36c1.71.91,3.07,2.22,4.05,3.92.99,1.7,1.48,3.67,1.48,5.9s-.5,4.2-1.5,5.9c-1,1.7-2.36,3.01-4.09,3.92-1.73.91-3.66,1.36-5.79,1.36s-4.05-.45-5.75-1.36ZM76.44,20.16c.9-.94,1.34-2.27,1.34-4.01s-.43-3.08-1.31-4.01c-.87-.94-1.94-1.4-3.22-1.4s-2.38.46-3.23,1.38c-.86.92-1.29,2.27-1.29,4.03s.42,3.08,1.27,4.01c.84.94,1.9,1.4,3.18,1.4s2.36-.47,3.25-1.4Z"/>
        <path class="cls-2" d="M106.49,7.52c1.52,1.65,2.28,3.92,2.28,6.8v12.7h-6.62v-11.81c0-1.45-.38-2.58-1.13-3.39-.75-.8-1.77-1.21-3.04-1.21s-2.29.4-3.04,1.21c-.75.81-1.13,1.94-1.13,3.39v11.81h-6.66V5.28h6.66v2.88c.68-.96,1.58-1.72,2.73-2.28,1.14-.56,2.43-.84,3.86-.84,2.55,0,4.58.83,6.1,2.47Z"/>
      </g>
      <g>
        <path class="cls-2" d="M118.21,27.02V0h3.98v27.02h-3.98ZM121.73,18.65v-3.62h4.43c2.08,0,3.65-.52,4.71-1.55,1.06-1.03,1.59-2.55,1.59-4.54,0-1.74-.53-3.06-1.59-3.96-1.06-.9-2.63-1.35-4.71-1.35h-4.36V0h4.36c3.39,0,5.95.75,7.7,2.26,1.74,1.51,2.62,3.74,2.62,6.68,0,3.18-.87,5.6-2.62,7.24-1.74,1.64-4.31,2.46-7.7,2.46h-4.43Z"/>
        <path class="cls-2" d="M138.59,27.02v-3.27h8.07v3.27h-8.07ZM139.73,11.75v-3.27h10.58v3.27h-10.58ZM148.16,5.54c-.77,0-1.44-.25-1.99-.76-.55-.51-.83-1.12-.83-1.83s.28-1.33.83-1.84c.55-.5,1.21-.75,1.99-.75s1.45.25,2,.75c.55.5.82,1.11.82,1.84s-.27,1.32-.82,1.83c-.55.51-1.21.76-2,.76ZM146.27,27.02V9.53h4.03v17.49h-4.03ZM149.93,27.02v-3.27h6.58v3.27h-6.58Z"/>
        <path class="cls-2" d="M173.63,27.02l-6.11-8.71-8.11-11.46h4.59l6.18,9.06,8.03,11.11h-4.59ZM159.42,27.02l8.03-11.11,6.18-9.06h4.59l-8.34,11.46-5.88,8.71h-4.59Z"/>
        <path class="cls-2" d="M192.43,27.4c-3.44,0-6.09-.9-7.96-2.71-1.87-1.81-2.81-4.41-2.81-7.79s.79-5.86,2.38-7.69,3.83-2.74,6.72-2.74c2.73,0,4.84.82,6.33,2.47,1.49,1.65,2.24,4.05,2.24,7.19,0,.93-.04,1.79-.11,2.59h-14.16v-3.08h10.6c0-1.81-.43-3.2-1.28-4.17s-2.05-1.45-3.57-1.45c-1.71,0-3.04.58-3.98,1.74s-1.41,2.81-1.41,4.94c0,2.33.65,4.11,1.94,5.32,1.29,1.21,3.14,1.82,5.54,1.82.84,0,1.66-.05,2.47-.14.81-.1,1.64-.22,2.47-.39l.49,3.56c-1.19.23-2.28.37-3.27.44s-1.86.1-2.63.1Z"/>
        <path class="cls-2" d="M202.95,30.04l12.79-28.64h3.39l-12.79,28.64h-3.39Z"/>
      </g>
      <g>
        <path class="cls-2" d="M220.22,11.17v-2.52l12.61-5.3v2.7l-9.51,3.75v.21l9.51,3.75v2.7l-12.61-5.3Z"/>
        <path class="cls-2" d="M232.99,16.7l-.21-.09-12.71-5.34v-2.72l.09-.04,12.83-5.39v3.04l-9.51,3.75,9.51,3.75v3.04ZM220.38,11.06l12.31,5.17v-2.37l-9.51-3.75v-.42l9.51-3.75v-2.37l-12.31,5.17v2.31Z"/>
      </g>
      <g>
        <path class="cls-2" d="M219.91,26.88l9.96-3.75v-.21l-9.96-3.75v-2.7l12.61,5.3v2.52l-12.61,5.3v-2.7Z"/>
        <path class="cls-2" d="M219.75,29.81v-3.04l.1-.04,9.86-3.71-9.96-3.75v-3.04l.21.09,12.71,5.34v2.72l-.09.04-12.83,5.39ZM220.06,26.99v2.37l12.31-5.17v-2.31l-12.31-5.17v2.37l9.96,3.75v.42l-.1.04-9.86,3.71Z"/>
      </g>
    </g>
  </g>
</svg>